<svg xmlns="http://www.w3.org/2000/svg" width="14.096" height="12.302" viewBox="0 0 14.096 12.302">
    <g id="heart" transform="translate(0.298 0.25)">
        <path id="Shape" d="M6.762,11.8a.489.489,0,0,1-.175-.034C1.329,9.722-.461,5.957.1,3.134A3.6,3.6,0,0,1,3.628,0,5.442,5.442,0,0,1,6.762,1.169,5.476,5.476,0,0,1,9.872.022a3.6,3.6,0,0,1,3.53,3.1c.557,2.8-1.226,6.555-6.466,8.645A.491.491,0,0,1,6.762,11.8ZM3.628.919a2.689,2.689,0,0,0-2.6,2.386c-.475,2.4,1.114,5.666,5.732,7.531,3.316-1.367,6.367-4.226,5.708-7.531A2.689,2.689,0,0,0,9.872.954,4.765,4.765,0,0,0,7.053,2.112a.482.482,0,0,1-.594,0A4.7,4.7,0,0,0,3.628.919Z" transform="translate(0)" fill="#888" stroke="#888" stroke-width="0.5"/>
    </g>
</svg>
