<svg xmlns="http://www.w3.org/2000/svg" width="22.676" height="22.692" viewBox="0 0 22.676 22.692">
    <path id="redo" d="M21.258.051A.678.678,0,0,0,20.52.2L18.081,2.637A11.462,11.462,0,0,0,10.838,0,10.838,10.838,0,1,0,18.5,18.5a.9.9,0,0,0-1.277-1.277A9.031,9.031,0,1,1,10.838,1.806,9.633,9.633,0,0,1,16.8,3.92l-2.149,2.15a.677.677,0,0,0,.479,1.156H21a.678.678,0,0,0,.677-.677V.677a.677.677,0,0,0-.418-.626Zm0,0" transform="translate(0.5 0.516)" fill="#33d6d7" stroke="#33d6d7" stroke-width="1"/>
</svg>
